<?xml version="1.0" encoding="UTF-8"?>
<!DOCTYPE svg PUBLIC "-//W3C//DTD SVG 1.1//EN" "http://www.w3.org/Graphics/SVG/1.1/DTD/svg11.dtd">
<svg xmlns="http://www.w3.org/2000/svg" version="1.1" width="500px" height="500px" style="shape-rendering:geometricPrecision; text-rendering:geometricPrecision; image-rendering:optimizeQuality; fill-rule:evenodd; clip-rule:evenodd" xmlns:xlink="http://www.w3.org/1999/xlink">
<g><path style="opacity:1" fill="#666c99" d="M 368.5,174.5 C 382.168,181.665 395.501,189.331 408.5,197.5C 407.504,197.414 406.671,197.748 406,198.5C 403.569,195.591 400.403,194.258 396.5,194.5C 396.291,193.078 395.791,191.745 395,190.5C 394.667,190.833 394.333,191.167 394,191.5C 389.67,188.113 384.837,185.78 379.5,184.5C 378.391,184.443 377.391,184.11 376.5,183.5C 375.833,183.5 375.5,183.167 375.5,182.5C 376.376,182.631 377.043,182.298 377.5,181.5C 374.888,180.385 372.721,178.718 371,176.5C 369.375,177.412 368.541,176.745 368.5,174.5 Z"/></g>
<g><path style="opacity:1" fill="#36508c" d="M 379.5,184.5 C 384.837,185.78 389.67,188.113 394,191.5C 394.333,191.167 394.667,190.833 395,190.5C 395.791,191.745 396.291,193.078 396.5,194.5C 390.332,191.92 384.665,188.586 379.5,184.5 Z"/></g>
<g><path style="opacity:1" fill="#7667f2" d="M 393.5,198.5 C 389.12,196.302 384.62,194.302 380,192.5C 375.374,193.795 371.207,195.962 367.5,199C 366.207,199.49 364.873,199.657 363.5,199.5C 367.228,196.441 371.228,193.774 375.5,191.5C 377.782,190.61 380.115,190.444 382.5,191C 386.324,193.333 389.99,195.833 393.5,198.5 Z"/></g>
<g><path style="opacity:1" fill="#7ec3fa" d="M 376.5,183.5 C 377.391,184.11 378.391,184.443 379.5,184.5C 384.665,188.586 390.332,191.92 396.5,194.5C 400.602,197.392 404.935,200.059 409.5,202.5C 410.429,201.311 410.762,199.978 410.5,198.5C 411.833,216.833 411.833,235.167 410.5,253.5C 410.5,252.167 410.5,250.833 410.5,249.5C 410.5,247.833 410.5,246.167 410.5,244.5C 410.832,232.149 410.499,219.815 409.5,207.5C 407.302,205.902 404.969,204.569 402.5,203.5C 399.957,201.06 396.957,199.394 393.5,198.5C 389.99,195.833 386.324,193.333 382.5,191C 380.115,190.444 377.782,190.61 375.5,191.5C 376.398,189.373 378.064,188.206 380.5,188C 379.135,186.318 377.635,186.151 376,187.5C 375.805,186.181 375.972,184.847 376.5,183.5 Z"/></g>
<g><path style="opacity:1" fill="#42568e" d="M 396.5,194.5 C 400.403,194.258 403.569,195.591 406,198.5C 406.671,197.748 407.504,197.414 408.5,197.5C 409.492,197.328 410.158,197.662 410.5,198.5C 410.762,199.978 410.429,201.311 409.5,202.5C 404.935,200.059 400.602,197.392 396.5,194.5 Z"/></g>
<g><path style="opacity:1" fill="#56c8fd" d="M 375.5,182.5 C 375.5,183.167 375.833,183.5 376.5,183.5C 375.972,184.847 375.805,186.181 376,187.5C 377.635,186.151 379.135,186.318 380.5,188C 378.064,188.206 376.398,189.373 375.5,191.5C 371.228,193.774 367.228,196.441 363.5,199.5C 359.164,201.332 355.164,203.665 351.5,206.5C 350.504,206.414 349.671,206.748 349,207.5C 348.833,213.833 348.667,220.167 348.5,226.5C 348.504,233.204 349.17,239.537 350.5,245.5C 357.004,250.255 364.004,254.255 371.5,257.5C 374.295,260.231 377.628,261.898 381.5,262.5C 382.583,262.461 383.583,262.127 384.5,261.5C 385.298,261.957 385.631,262.624 385.5,263.5C 384.5,263.833 383.833,264.5 383.5,265.5C 379.317,266.854 375.484,268.854 372,271.5C 359.326,264.082 346.492,257.082 333.5,250.5C 333.167,234.486 333.501,218.486 334.5,202.5C 346.167,195.667 357.833,188.833 369.5,182C 371.598,181.322 373.598,181.489 375.5,182.5 Z"/></g>
<g><path style="opacity:1" fill="#8b52fe" d="M 393.5,198.5 C 396.957,199.394 399.957,201.06 402.5,203.5C 402.5,204.5 402.5,205.5 402.5,206.5C 404.722,206.178 406.556,206.845 408,208.5C 408.5,220.495 408.667,232.495 408.5,244.5C 406.5,244.833 404.5,245.167 402.5,245.5C 402.567,246.959 402.234,248.292 401.5,249.5C 397.792,249.712 395.126,251.378 393.5,254.5C 393.167,254.5 392.833,254.5 392.5,254.5C 388.587,256.041 384.754,257.708 381,259.5C 377.801,258.894 374.634,258.227 371.5,257.5C 364.004,254.255 357.004,250.255 350.5,245.5C 349.355,233.242 349.188,220.909 350,208.5C 350.717,207.956 351.217,207.289 351.5,206.5C 356.497,205.637 360.497,203.303 363.5,199.5C 364.873,199.657 366.207,199.49 367.5,199C 371.207,195.962 375.374,193.795 380,192.5C 384.62,194.302 389.12,196.302 393.5,198.5 Z"/></g>
<g><path style="opacity:1" fill="#736cf5" d="M 363.5,199.5 C 360.497,203.303 356.497,205.637 351.5,206.5C 355.164,203.665 359.164,201.332 363.5,199.5 Z"/></g>
<g><path style="opacity:0.988" fill="#6c7097" d="M 213.5,211.5 C 215.435,212.15 217.435,212.483 219.5,212.5C 219.5,211.5 219.5,210.5 219.5,209.5C 220.5,209.5 221.5,209.5 222.5,209.5C 222.5,208.5 222.5,207.5 222.5,206.5C 219.278,204.909 216.278,205.242 213.5,207.5C 214.828,203.746 217.494,202.579 221.5,204C 225.325,211.522 222.992,214.522 214.5,213C 213.944,212.617 213.611,212.117 213.5,211.5 Z"/></g>
<g><path style="opacity:0.475" fill="#b8b7c9" d="M 191.5,205.5 C 190.89,206.391 190.557,207.391 190.5,208.5C 189.115,207.053 189.448,206.053 191.5,205.5 Z"/></g>
<g><path style="opacity:0.727" fill="#878aaf" d="M 109.5,208.5 C 105.5,208.5 101.5,208.5 97.5,208.5C 97.5,209.833 97.5,211.167 97.5,212.5C 96.5489,211.081 96.2155,209.415 96.5,207.5C 101.032,207.182 105.366,207.515 109.5,208.5 Z"/></g>
<g><path style="opacity:1" fill="#424c8a" d="M 368.5,174.5 C 368.541,176.745 369.375,177.412 371,176.5C 372.721,178.718 374.888,180.385 377.5,181.5C 377.043,182.298 376.376,182.631 375.5,182.5C 373.598,181.489 371.598,181.322 369.5,182C 357.833,188.833 346.167,195.667 334.5,202.5C 333.501,218.486 333.167,234.486 333.5,250.5C 346.492,257.082 359.326,264.082 372,271.5C 375.484,268.854 379.317,266.854 383.5,265.5C 383.5,266.5 383.5,267.5 383.5,268.5C 382.167,268.5 380.833,268.5 379.5,268.5C 379.5,269.5 379.5,270.5 379.5,271.5C 376.482,271.704 373.482,272.037 370.5,272.5C 370.719,273.675 370.386,274.675 369.5,275.5C 367.587,276.373 365.753,277.373 364,278.5C 362.211,276.771 360.044,276.104 357.5,276.5C 346.237,270.558 335.237,264.225 324.5,257.5C 324.027,256.094 323.027,255.427 321.5,255.5C 320.508,255.672 319.842,255.338 319.5,254.5C 318.514,235.91 318.18,217.243 318.5,198.5C 333.441,189.022 348.775,180.022 364.5,171.5C 366.261,172.035 367.594,173.035 368.5,174.5 Z"/></g>
<g><path style="opacity:1" fill="#8383aa" d="M 131.5,208.5 C 135.646,207.353 139.98,207.186 144.5,208C 144.957,208.414 145.291,208.914 145.5,209.5C 143.358,211.618 141.692,213.952 140.5,216.5C 140.693,213.692 141.36,211.025 142.5,208.5C 138.833,208.5 135.167,208.5 131.5,208.5 Z"/></g>
<g><path style="opacity:1" fill="#484e87" d="M 213.5,211.5 C 212.595,210.036 212.595,208.702 213.5,207.5C 216.278,205.242 219.278,204.909 222.5,206.5C 222.5,207.5 222.5,208.5 222.5,209.5C 221.5,209.5 220.5,209.5 219.5,209.5C 219.5,210.5 219.5,211.5 219.5,212.5C 217.435,212.483 215.435,212.15 213.5,211.5 Z"/></g>
<g><path style="opacity:0.984" fill="#8788ae" d="M 204.5,211.5 C 204.405,213.786 203.738,215.786 202.5,217.5C 202.025,214.918 202.692,212.918 204.5,211.5 Z"/></g>
<g><path style="opacity:1" fill="#656be8" d="M 351.5,206.5 C 351.217,207.289 350.717,207.956 350,208.5C 349.188,220.909 349.355,233.242 350.5,245.5C 349.17,239.537 348.504,233.204 348.5,226.5C 348.667,220.167 348.833,213.833 349,207.5C 349.671,206.748 350.504,206.414 351.5,206.5 Z"/></g>
<g><path style="opacity:0.998" fill="#454b88" d="M 109.5,208.5 C 111.939,213.49 113.606,218.823 114.5,224.5C 114.5,225.5 114.5,226.5 114.5,227.5C 115.833,227.5 117.167,227.5 118.5,227.5C 118.5,228.833 118.5,230.167 118.5,231.5C 117.178,231.33 116.011,231.663 115,232.5C 113.097,234.441 112.264,236.774 112.5,239.5C 110.304,239.435 108.304,238.768 106.5,237.5C 105.75,234.335 104.416,231.669 102.5,229.5C 101.596,228.791 101.263,227.791 101.5,226.5C 101.5,225.5 101.5,224.5 101.5,223.5C 99.8762,223.36 98.7096,224.027 98,225.5C 97.5034,227.81 97.3367,230.143 97.5,232.5C 97.5,232.833 97.5,233.167 97.5,233.5C 96.5269,235.948 96.1936,238.615 96.5,241.5C 94.1667,241.5 91.8333,241.5 89.5,241.5C 89.4326,240.041 89.7659,238.708 90.5,237.5C 91.8759,231.973 93.5425,226.64 95.5,221.5C 96.9238,219.485 97.5905,217.152 97.5,214.5C 97.5,213.833 97.5,213.167 97.5,212.5C 97.5,211.167 97.5,209.833 97.5,208.5C 101.5,208.5 105.5,208.5 109.5,208.5 Z"/></g>
<g><path style="opacity:0.757" fill="#999ebc" d="M 288.5,215.5 C 291.64,214.359 294.973,214.192 298.5,215C 299.252,215.671 299.586,216.504 299.5,217.5C 297.18,215.774 294.513,215.107 291.5,215.5C 290.5,215.5 289.5,215.5 288.5,215.5 Z"/></g>
<g><path style="opacity:1" fill="#815cec" d="M 402.5,203.5 C 404.969,204.569 407.302,205.902 409.5,207.5C 410.499,219.815 410.832,232.149 410.5,244.5C 407.312,245.925 404.312,247.592 401.5,249.5C 402.234,248.292 402.567,246.959 402.5,245.5C 404.5,245.167 406.5,244.833 408.5,244.5C 408.667,232.495 408.5,220.495 408,208.5C 406.556,206.845 404.722,206.178 402.5,206.5C 402.5,205.5 402.5,204.5 402.5,203.5 Z"/></g>
<g><path style="opacity:0.929" fill="#9095b3" d="M 97.5,214.5 C 97.5905,217.152 96.9238,219.485 95.5,221.5C 95.4095,218.848 96.0762,216.515 97.5,214.5 Z"/></g>
<g><path style="opacity:0.98" fill="#9c9eb1" d="M 208.5,215.5 C 208.5,215.833 208.5,216.167 208.5,216.5C 207.566,217.568 207.232,218.901 207.5,220.5C 204.695,218.244 205.028,216.577 208.5,215.5 Z"/></g>
<g><path style="opacity:0.69" fill="#9b9eb9" d="M 274.5,215.5 C 277.204,215.67 278.871,217.003 279.5,219.5C 278.542,219.047 277.708,218.381 277,217.5C 275.692,218.151 274.859,217.485 274.5,215.5 Z"/></g>
<g><path style="opacity:1" fill="#72759c" d="M 274.5,215.5 C 270.445,215.176 266.445,215.509 262.5,216.5C 259.189,219.234 255.523,221.234 251.5,222.5C 251.511,220.983 252.177,219.816 253.5,219C 260.063,214.618 267.063,213.452 274.5,215.5 Z"/></g>
<g><path style="opacity:0.984" fill="#4c518a" d="M 274.5,215.5 C 274.859,217.485 275.692,218.151 277,217.5C 277.708,218.381 278.542,219.047 279.5,219.5C 282.907,231.163 278.574,238.663 266.5,242C 260.725,243.102 255.392,242.102 250.5,239C 248.336,234.879 248.003,230.712 249.5,226.5C 250.674,225.486 251.34,224.153 251.5,222.5C 255.523,221.234 259.189,219.234 262.5,216.5C 266.445,215.509 270.445,215.176 274.5,215.5 Z M 268.5,220.5 C 267.232,225.971 265.565,231.304 263.5,236.5C 261.824,235.817 261.157,234.483 261.5,232.5C 261.5,232.167 261.5,231.833 261.5,231.5C 263.002,228.346 264.336,225.013 265.5,221.5C 266.325,220.614 267.325,220.281 268.5,220.5 Z"/></g>
<g><path style="opacity:0.996" fill="#6d719a" d="M 128.5,211.5 C 127.171,214.347 125.504,217.013 123.5,219.5C 122.148,220.524 120.815,221.524 119.5,222.5C 121.785,218.273 124.785,214.607 128.5,211.5 Z"/></g>
<g><path style="opacity:0.991" fill="#616593" d="M 204.5,210.5 C 204.439,208.408 203.439,206.908 201.5,206C 198.469,205.505 195.469,205.671 192.5,206.5C 193.006,210.007 192.34,213.174 190.5,216C 186.167,216.333 181.833,216.667 177.5,217C 177.043,217.414 176.709,217.914 176.5,218.5C 178.686,219.221 180.853,219.887 183,220.5C 186.187,217.589 188.687,218.089 190.5,222C 189.296,223.699 187.962,225.199 186.5,226.5C 186.869,224.559 187.536,222.725 188.5,221C 187.251,219.176 186.085,219.343 185,221.5C 182.715,225.187 181.548,229.187 181.5,233.5C 180.356,229.648 180.356,225.648 181.5,221.5C 179.508,221.328 177.842,221.995 176.5,223.5C 174.736,220.823 173.57,221.156 173,224.5C 172.329,225.252 171.496,225.586 170.5,225.5C 169.794,224.443 169.461,224.776 169.5,226.5C 168.395,227.6 167.062,228.267 165.5,228.5C 167.147,225.079 167.813,221.413 167.5,217.5C 164.833,217.5 162.167,217.5 159.5,217.5C 159.975,220.082 159.308,222.082 157.5,223.5C 157.394,218.537 156.394,218.537 154.5,223.5C 154.167,223.5 153.833,223.5 153.5,223.5C 153.674,221.139 154.007,218.806 154.5,216.5C 150.855,215.68 148.522,217.013 147.5,220.5C 145.681,221.32 144.014,222.32 142.5,223.5C 145.263,217.108 150.263,213.775 157.5,213.5C 165.1,212.865 169.6,216.199 171,223.5C 174.459,215.103 180.459,212.437 189,215.5C 190.904,213.329 191.404,210.996 190.5,208.5C 190.557,207.391 190.89,206.391 191.5,205.5C 194.856,203.621 198.523,203.121 202.5,204C 205.292,205.687 205.958,207.853 204.5,210.5 Z"/></g>
<g><path style="opacity:0.997" fill="#414887" d="M 204.5,210.5 C 204.5,210.833 204.5,211.167 204.5,211.5C 202.692,212.918 202.025,214.918 202.5,217.5C 200.934,219.947 199.268,222.447 197.5,225C 198.233,226.766 198.567,228.599 198.5,230.5C 196.612,232.988 195.945,235.988 196.5,239.5C 193.545,240.159 190.545,240.492 187.5,240.5C 185.205,236.344 184.872,232.011 186.5,227.5C 186.5,227.167 186.5,226.833 186.5,226.5C 187.962,225.199 189.296,223.699 190.5,222C 188.687,218.089 186.187,217.589 183,220.5C 180.853,219.887 178.686,219.221 176.5,218.5C 176.709,217.914 177.043,217.414 177.5,217C 181.833,216.667 186.167,216.333 190.5,216C 192.34,213.174 193.006,210.007 192.5,206.5C 195.469,205.671 198.469,205.505 201.5,206C 203.439,206.908 204.439,208.408 204.5,210.5 Z"/></g>
<g><path style="opacity:0.984" fill="#4c518c" d="M 248.5,217.5 C 248.635,220.417 247.968,223.084 246.5,225.5C 243.598,227.115 241.265,226.449 239.5,223.5C 239.762,222.022 239.429,220.689 238.5,219.5C 237.893,219.624 237.56,219.957 237.5,220.5C 237.167,220.5 236.833,220.5 236.5,220.5C 235.172,219.09 235.505,217.924 237.5,217C 241.203,216.421 244.869,216.588 248.5,217.5 Z"/></g>
<g><path style="opacity:0.29" fill="#ced1e9" d="M 237.5,220.5 C 237.56,219.957 237.893,219.624 238.5,219.5C 239.429,220.689 239.762,222.022 239.5,223.5C 238.833,222.5 238.167,221.5 237.5,220.5 Z"/></g>
<g><path style="opacity:0.994" fill="#474c88" d="M 153.5,223.5 C 153.281,224.675 153.614,225.675 154.5,226.5C 155.107,226.376 155.44,226.043 155.5,225.5C 155.833,224.5 156.5,223.833 157.5,223.5C 159.308,222.082 159.975,220.082 159.5,217.5C 162.167,217.5 164.833,217.5 167.5,217.5C 167.813,221.413 167.147,225.079 165.5,228.5C 164.432,229.434 163.099,229.768 161.5,229.5C 158.5,229.5 155.5,229.5 152.5,229.5C 152.44,233.485 154.44,235.152 158.5,234.5C 158.389,236.648 159.056,236.981 160.5,235.5C 161.429,236.689 161.762,238.022 161.5,239.5C 158.193,239.937 155.193,239.27 152.5,237.5C 151.452,238.383 150.285,239.05 149,239.5C 147.2,238.68 145.366,238.014 143.5,237.5C 139.94,233.19 139.607,228.523 142.5,223.5C 144.014,222.32 145.681,221.32 147.5,220.5C 148.522,217.013 150.855,215.68 154.5,216.5C 154.007,218.806 153.674,221.139 153.5,223.5 Z M 157.5,223.5 C 156.5,223.833 155.833,224.5 155.5,225.5C 154.662,225.158 154.328,224.492 154.5,223.5C 156.394,218.537 157.394,218.537 157.5,223.5 Z"/></g>
<g><path style="opacity:0.996" fill="#454b89" d="M 219.5,215.5 C 217.603,221.659 216.603,227.993 216.5,234.5C 216.5,234.833 216.5,235.167 216.5,235.5C 214.744,236.552 214.077,238.219 214.5,240.5C 210.445,240.824 206.445,240.491 202.5,239.5C 203.246,238.264 203.579,236.93 203.5,235.5C 204.496,235.586 205.329,235.252 206,234.5C 207.156,228.532 207.989,222.532 208.5,216.5C 208.5,216.167 208.5,215.833 208.5,215.5C 212.268,214.213 215.935,214.213 219.5,215.5 Z"/></g>
<g><path style="opacity:0.996" fill="#626491" d="M 219.5,215.5 C 220.947,216.134 221.613,217.301 221.5,219C 220.354,224.449 218.687,229.616 216.5,234.5C 216.603,227.993 217.603,221.659 219.5,215.5 Z"/></g>
<g><path style="opacity:0.878" fill="#868ba8" d="M 248.5,217.5 C 249.309,219.292 249.809,221.292 250,223.5C 250.383,222.944 250.883,222.611 251.5,222.5C 251.34,224.153 250.674,225.486 249.5,226.5C 249.631,225.761 249.464,225.094 249,224.5C 248.329,225.252 247.496,225.586 246.5,225.5C 247.968,223.084 248.635,220.417 248.5,217.5 Z"/></g>
<g><path style="opacity:0.999" fill="#424888" d="M 291.5,215.5 C 294.513,215.107 297.18,215.774 299.5,217.5C 299.369,218.239 299.536,218.906 300,219.5C 302.159,218.845 303.659,217.512 304.5,215.5C 306.924,215.192 309.257,215.526 311.5,216.5C 312.315,218.955 313.315,221.289 314.5,223.5C 314.547,225 313.881,226 312.5,226.5C 311.542,224.376 310.375,222.376 309,220.5C 308,221.5 307,222.5 306,223.5C 308.209,228.692 309.375,234.358 309.5,240.5C 307.5,240.5 305.5,240.5 303.5,240.5C 303.376,238.048 302.376,236.048 300.5,234.5C 301.156,232.547 301.489,230.547 301.5,228.5C 304.139,227.294 304.972,225.294 304,222.5C 298.521,220.781 295.021,222.781 293.5,228.5C 293.786,232.405 293.786,236.238 293.5,240C 289.833,240.667 286.167,240.667 282.5,240C 284.809,232.671 286.642,225.171 288,217.5C 289.302,216.915 290.469,216.249 291.5,215.5 Z"/></g>
<g><path style="opacity:1" fill="#8688ab" d="M 304.5,215.5 C 303.659,217.512 302.159,218.845 300,219.5C 299.536,218.906 299.369,218.239 299.5,217.5C 301.167,216.833 302.833,216.167 304.5,215.5 Z"/></g>
<g><path style="opacity:0.094" fill="#d5dff3" d="M 125.5,224.5 C 125.672,225.492 125.338,226.158 124.5,226.5C 124.5,225.833 124.167,225.5 123.5,225.5C 124.006,223.895 124.673,223.561 125.5,224.5 Z"/></g>
<g><path style="opacity:0.02" fill="#cce8f4" d="M 153.5,223.5 C 153.833,223.5 154.167,223.5 154.5,223.5C 154.328,224.492 154.662,225.158 155.5,225.5C 155.44,226.043 155.107,226.376 154.5,226.5C 153.614,225.675 153.281,224.675 153.5,223.5 Z"/></g>
<g><path style="opacity:1" fill="#6f719d" d="M 202.5,217.5 C 201.612,222.072 200.279,226.405 198.5,230.5C 198.567,228.599 198.233,226.766 197.5,225C 199.268,222.447 200.934,219.947 202.5,217.5 Z"/></g>
<g><path style="opacity:0.982" fill="#7f82a8" d="M 268.5,220.5 C 267.325,220.281 266.325,220.614 265.5,221.5C 264.336,225.013 263.002,228.346 261.5,231.5C 261.333,227.33 262,223.33 263.5,219.5C 265.415,219.216 267.081,219.549 268.5,220.5 Z"/></g>
<g><path style="opacity:1" fill="#7f83a9" d="M 101.5,226.5 C 100.883,226.389 100.383,226.056 100,225.5C 99.6097,228.104 98.7763,230.438 97.5,232.5C 97.3367,230.143 97.5034,227.81 98,225.5C 98.7096,224.027 99.8762,223.36 101.5,223.5C 101.5,224.5 101.5,225.5 101.5,226.5 Z"/></g>
<g><path style="opacity:0.987" fill="#626796" d="M 125.5,224.5 C 124.673,223.561 124.006,223.895 123.5,225.5C 122.557,228.109 120.89,230.109 118.5,231.5C 118.5,230.167 118.5,228.833 118.5,227.5C 117.167,227.5 115.833,227.5 114.5,227.5C 114.5,226.5 114.5,225.5 114.5,224.5C 115.117,224.611 115.617,224.944 116,225.5C 117.039,224.29 118.206,223.29 119.5,222.5C 119.281,223.675 119.614,224.675 120.5,225.5C 121.159,222.176 123.159,220.843 126.5,221.5C 126.737,222.791 126.404,223.791 125.5,224.5 Z"/></g>
<g><path style="opacity:0.998" fill="#444b88" d="M 131.5,208.5 C 135.167,208.5 138.833,208.5 142.5,208.5C 141.36,211.025 140.693,213.692 140.5,216.5C 138.833,223.833 137.167,231.167 135.5,238.5C 131.285,240.436 126.619,241.103 121.5,240.5C 121.629,238.784 121.962,237.117 122.5,235.5C 124.223,233.22 124.889,230.553 124.5,227.5C 124.5,227.167 124.5,226.833 124.5,226.5C 125.338,226.158 125.672,225.492 125.5,224.5C 126.404,223.791 126.737,222.791 126.5,221.5C 123.159,220.843 121.159,222.176 120.5,225.5C 119.614,224.675 119.281,223.675 119.5,222.5C 120.815,221.524 122.148,220.524 123.5,219.5C 125.504,217.013 127.171,214.347 128.5,211.5C 128.5,209.5 129.5,208.5 131.5,208.5 Z"/></g>
<g><path style="opacity:1" fill="#474d8a" d="M 181.5,233.5 C 181.383,235.484 182.05,237.15 183.5,238.5C 181.668,239.057 180.335,240.057 179.5,241.5C 176.228,242.463 173.395,241.463 171,238.5C 169.646,234.637 169.146,230.637 169.5,226.5C 170.167,226.5 170.5,226.167 170.5,225.5C 171.496,225.586 172.329,225.252 173,224.5C 173.57,221.156 174.736,220.823 176.5,223.5C 177.842,221.995 179.508,221.328 181.5,221.5C 180.356,225.648 180.356,229.648 181.5,233.5 Z"/></g>
<g><path style="opacity:0.994" fill="#595e90" d="M 304.5,215.5 C 305.793,214.842 307.293,214.508 309,214.5C 314.118,214.284 316.618,216.784 316.5,222C 315.998,225.669 314.998,229.169 313.5,232.5C 312.596,233.209 312.263,234.209 312.5,235.5C 313.5,235.5 314.5,235.5 315.5,235.5C 315.552,238.952 313.885,241.119 310.5,242C 299.294,242.735 296.294,238.235 301.5,228.5C 301.489,230.547 301.156,232.547 300.5,234.5C 302.376,236.048 303.376,238.048 303.5,240.5C 305.5,240.5 307.5,240.5 309.5,240.5C 309.375,234.358 308.209,228.692 306,223.5C 307,222.5 308,221.5 309,220.5C 310.375,222.376 311.542,224.376 312.5,226.5C 313.881,226 314.547,225 314.5,223.5C 313.315,221.289 312.315,218.955 311.5,216.5C 309.257,215.526 306.924,215.192 304.5,215.5 Z"/></g>
<g><path style="opacity:0.973" fill="#8382a8" d="M 124.5,227.5 C 124.889,230.553 124.223,233.22 122.5,235.5C 122.565,232.572 123.232,229.905 124.5,227.5 Z"/></g>
<g><path style="opacity:1" fill="#6f7397" d="M 118.5,231.5 C 116.878,234.455 114.878,237.122 112.5,239.5C 112.264,236.774 113.097,234.441 115,232.5C 116.011,231.663 117.178,231.33 118.5,231.5 Z"/></g>
<g><path style="opacity:0.302" fill="#abb1d0" d="M 161.5,229.5 C 158.972,230.166 156.306,230.832 153.5,231.5C 155.851,233.229 158.518,233.896 161.5,233.5C 160.791,234.404 159.791,234.737 158.5,234.5C 154.44,235.152 152.44,233.485 152.5,229.5C 155.5,229.5 158.5,229.5 161.5,229.5 Z"/></g>
<g><path style="opacity:0.988" fill="#585b8c" d="M 248.5,217.5 C 244.869,216.588 241.203,216.421 237.5,217C 235.505,217.924 235.172,219.09 236.5,220.5C 234.176,223.475 233.343,226.808 234,230.5C 235.848,233.041 238.348,234.041 241.5,233.5C 242.5,233.5 243.5,233.5 244.5,233.5C 244.5,234.833 244.5,236.167 244.5,237.5C 243.341,239.25 241.674,240.25 239.5,240.5C 240.038,238.883 240.371,237.216 240.5,235.5C 237.302,235.48 234.469,235.147 232,234.5C 230.945,229.315 231.778,224.482 234.5,220C 233.941,217.812 232.607,217.146 230.5,218C 228.239,219.813 225.905,221.313 223.5,222.5C 224.203,220.284 225.536,218.451 227.5,217C 233.406,214.119 239.406,213.452 245.5,215C 246.942,215.377 247.942,216.21 248.5,217.5 Z"/></g>
<g><path style="opacity:0.984" fill="#5d638f" d="M 208.5,216.5 C 207.989,222.532 207.156,228.532 206,234.5C 205.329,235.252 204.496,235.586 203.5,235.5C 204.427,230.387 205.76,225.387 207.5,220.5C 207.232,218.901 207.566,217.568 208.5,216.5 Z"/></g>
<g><path style="opacity:0.949" fill="#898aa8" d="M 244.5,237.5 C 244.5,236.167 244.5,234.833 244.5,233.5C 243.5,233.5 242.5,233.5 241.5,233.5C 242.641,232.661 243.974,231.994 245.5,231.5C 246.757,233.799 246.423,235.799 244.5,237.5 Z"/></g>
<g><path style="opacity:0.098" fill="#ced2ec" d="M 313.5,232.5 C 313.782,233.778 314.449,234.778 315.5,235.5C 314.5,235.5 313.5,235.5 312.5,235.5C 312.263,234.209 312.596,233.209 313.5,232.5 Z"/></g>
<g><path style="opacity:0.965" fill="#686d97" d="M 186.5,227.5 C 184.872,232.011 185.205,236.344 187.5,240.5C 186.504,240.586 185.671,240.252 185,239.5C 183.416,240.861 181.582,241.528 179.5,241.5C 180.335,240.057 181.668,239.057 183.5,238.5C 182.05,237.15 181.383,235.484 181.5,233.5C 182.397,234.598 183.23,234.598 184,233.5C 184.566,231.277 185.4,229.277 186.5,227.5 Z"/></g>
<g><path style="opacity:0.29" fill="#b8bbdd" d="M 261.5,232.5 C 261.157,234.483 261.824,235.817 263.5,236.5C 262.791,237.404 261.791,237.737 260.5,237.5C 260.216,235.585 260.549,233.919 261.5,232.5 Z"/></g>
<g><path style="opacity:0.984" fill="#686c95" d="M 198.5,230.5 C 198.67,231.822 198.337,232.989 197.5,234C 198.449,234.617 199.282,234.451 200,233.5C 200.49,235.545 200.323,237.545 199.5,239.5C 195.524,242.534 191.524,242.867 187.5,240.5C 190.545,240.492 193.545,240.159 196.5,239.5C 195.945,235.988 196.612,232.988 198.5,230.5 Z"/></g>
<g><path style="opacity:0.984" fill="#4a508b" d="M 239.5,240.5 C 233.473,243.294 227.973,242.294 223,237.5C 220.924,232.318 221.091,227.318 223.5,222.5C 225.905,221.313 228.239,219.813 230.5,218C 232.607,217.146 233.941,217.812 234.5,220C 231.778,224.482 230.945,229.315 232,234.5C 234.469,235.147 237.302,235.48 240.5,235.5C 240.371,237.216 240.038,238.883 239.5,240.5 Z"/></g>
<g><path style="opacity:0.744" fill="#7679a2" d="M 318.5,198.5 C 318.18,217.243 318.514,235.91 319.5,254.5C 318.168,245.525 317.502,236.191 317.5,226.5C 317.5,216.994 317.834,207.661 318.5,198.5 Z"/></g>
<g><path style="opacity:0.976" fill="#6b6c97" d="M 102.5,229.5 C 104.416,231.669 105.75,234.335 106.5,237.5C 108.304,238.768 110.304,239.435 112.5,239.5C 111.688,240.993 110.355,241.66 108.5,241.5C 107.5,241.167 106.5,240.833 105.5,240.5C 104.03,236.952 103.03,233.285 102.5,229.5 Z"/></g>
<g><path style="opacity:0.988" fill="#5f6192" d="M 143.5,237.5 C 145.366,238.014 147.2,238.68 149,239.5C 150.285,239.05 151.452,238.383 152.5,237.5C 155.193,239.27 158.193,239.937 161.5,239.5C 161.762,238.022 161.429,236.689 160.5,235.5C 159.056,236.981 158.389,236.648 158.5,234.5C 159.791,234.737 160.791,234.404 161.5,233.5C 162.919,232.549 164.585,232.216 166.5,232.5C 165.643,238.189 162.31,241.356 156.5,242C 151.276,242.785 146.943,241.285 143.5,237.5 Z"/></g>
<g><path style="opacity:1" fill="#5c5f8d" d="M 288.5,215.5 C 289.5,215.5 290.5,215.5 291.5,215.5C 290.469,216.249 289.302,216.915 288,217.5C 286.642,225.171 284.809,232.671 282.5,240C 286.167,240.667 289.833,240.667 293.5,240C 293.786,236.238 293.786,232.405 293.5,228.5C 295.021,222.781 298.521,220.781 304,222.5C 304.972,225.294 304.139,227.294 301.5,228.5C 303.456,222.911 302.622,221.911 299,225.5C 296.528,230.683 295.695,236.016 296.5,241.5C 290.463,241.829 284.463,241.496 278.5,240.5C 282.422,234.581 285.088,228.081 286.5,221C 283.78,218.168 284.447,216.335 288.5,215.5 Z"/></g>
<g><path style="opacity:0.984" fill="#8989a6" d="M 90.5,237.5 C 89.7659,238.708 89.4326,240.041 89.5,241.5C 88.5028,241.53 87.8361,241.03 87.5,240C 87.7483,238.251 88.7483,237.418 90.5,237.5 Z"/></g>
<g><path style="opacity:0.949" fill="#a2a2bd" d="M 97.5,233.5 C 97.2436,235.792 97.5769,237.959 98.5,240C 97.9558,240.717 97.2891,241.217 96.5,241.5C 96.1936,238.615 96.5269,235.948 97.5,233.5 Z"/></g>
<g><path style="opacity:0.918" fill="#60638e" d="M 122.5,235.5 C 121.962,237.117 121.629,238.784 121.5,240.5C 126.619,241.103 131.285,240.436 135.5,238.5C 136.404,239.209 136.737,240.209 136.5,241.5C 130.5,241.5 124.5,241.5 118.5,241.5C 118.622,238.708 119.956,236.708 122.5,235.5 Z"/></g>
<g><path style="opacity:0.957" fill="#5a5b89" d="M 203.5,235.5 C 203.579,236.93 203.246,238.264 202.5,239.5C 206.445,240.491 210.445,240.824 214.5,240.5C 214.077,238.219 214.744,236.552 216.5,235.5C 216.833,237.5 217.167,239.5 217.5,241.5C 211.074,242.12 205.074,241.453 199.5,239.5C 201.194,238.473 202.527,237.139 203.5,235.5 Z"/></g>
<g><path style="opacity:1" fill="#716fef" d="M 401.5,249.5 C 399.206,251.653 396.54,253.32 393.5,254.5C 395.126,251.378 397.792,249.712 401.5,249.5 Z"/></g>
<g><path style="opacity:1" fill="#63bcf8" d="M 410.5,244.5 C 410.5,246.167 410.5,247.833 410.5,249.5C 407.46,250.68 404.794,252.347 402.5,254.5C 396.702,257.233 391.035,260.233 385.5,263.5C 385.631,262.624 385.298,261.957 384.5,261.5C 383.583,262.127 382.583,262.461 381.5,262.5C 385.167,259.833 388.833,257.167 392.5,254.5C 392.833,254.5 393.167,254.5 393.5,254.5C 396.54,253.32 399.206,251.653 401.5,249.5C 404.312,247.592 407.312,245.925 410.5,244.5 Z"/></g>
<g><path style="opacity:1" fill="#5c6694" d="M 410.5,249.5 C 410.5,250.833 410.5,252.167 410.5,253.5C 408.664,255.588 406.331,256.921 403.5,257.5C 402.89,256.609 402.557,255.609 402.5,254.5C 404.794,252.347 407.46,250.68 410.5,249.5 Z"/></g>
<g><path style="opacity:0.467" fill="#aeaecc" d="M 321.5,255.5 C 323.027,255.427 324.027,256.094 324.5,257.5C 322.973,257.573 321.973,256.906 321.5,255.5 Z"/></g>
<g><path style="opacity:1" fill="#7568f4" d="M 392.5,254.5 C 388.833,257.167 385.167,259.833 381.5,262.5C 377.628,261.898 374.295,260.231 371.5,257.5C 374.634,258.227 377.801,258.894 381,259.5C 384.754,257.708 388.587,256.041 392.5,254.5 Z"/></g>
<g><path style="opacity:1" fill="#7378a0" d="M 403.5,257.5 C 400.506,260 397.173,262 393.5,263.5C 393.5,262.5 393.5,261.5 393.5,260.5C 396.548,258.707 399.882,257.707 403.5,257.5 Z"/></g>
<g><path style="opacity:1" fill="#556296" d="M 402.5,254.5 C 402.557,255.609 402.89,256.609 403.5,257.5C 399.882,257.707 396.548,258.707 393.5,260.5C 393.5,261.5 393.5,262.5 393.5,263.5C 389.167,266.669 384.5,269.336 379.5,271.5C 379.5,270.5 379.5,269.5 379.5,268.5C 380.833,268.5 382.167,268.5 383.5,268.5C 383.5,267.5 383.5,266.5 383.5,265.5C 383.833,264.5 384.5,263.833 385.5,263.5C 391.035,260.233 396.702,257.233 402.5,254.5 Z"/></g>
<g><path style="opacity:1" fill="#646794" d="M 379.5,271.5 C 375.023,275.244 370.023,278.244 364.5,280.5C 361.651,279.914 359.318,278.58 357.5,276.5C 360.044,276.104 362.211,276.771 364,278.5C 365.753,277.373 367.587,276.373 369.5,275.5C 370.386,274.675 370.719,273.675 370.5,272.5C 373.482,272.037 376.482,271.704 379.5,271.5 Z"/></g>
</svg>
